<svg version="1.1" viewBox="0 0 94.403 61.003" xmlns="http://www.w3.org/2000/svg">
<defs>
<linearGradient id="logo-gradient" gradientTransform="rotate(90)">
  <stop offset="0%" stop-color="var(--logo-shadow)" />
  <stop offset="100%" stop-color="var(--logo)" />
</linearGradient>
</defs>
  <path id="yo" d="m26.422 39.29q0-5.5562 1.6669-9.6838 1.7462-4.2069 4.5244-6.985 2.7781-2.7781 6.35-4.2069 3.6512-1.4288 7.4612-1.4288 8.89 0 14.049 5.4769 5.1594 5.3975 5.1594 15.954 0 1.0319-0.0794 2.3019-0.0794 1.1906-0.15875 2.1431h-26.829q0.39688 3.6512 3.4131 5.7944 3.0162 2.1431 8.0962 2.1431 3.2544 0 6.35-0.55563 3.175-0.635 5.1594-1.5081l1.5875 9.6044q-0.9525 0.47625-2.54 0.9525t-3.5719 0.79375q-1.905 0.39688-4.1275 0.635-2.2225 0.23813-4.445 0.23813-5.6356 0-9.8425-1.6669-4.1275-1.6669-6.9056-4.5244-2.6988-2.9369-4.0481-6.9056-1.27-3.9688-1.27-8.5725zm27.781-4.5244q-0.07937-1.5081-0.55562-2.9369-0.39688-1.4288-1.3494-2.54-0.87312-1.1112-2.3019-1.8256-1.3494-0.71438-3.4131-0.71438-1.9844 0-3.4131 0.71438-1.4288 0.635-2.3812 1.7462t-1.5081 2.6194q-0.47625 1.4288-0.71438 2.9369zm-16.589-22.701q-2.4606 0-4.2862-1.5875-1.8256-1.6669-1.8256-4.445t1.8256-4.3656q1.8256-1.6669 4.2862-1.6669t4.2862 1.6669q1.8256 1.5875 1.8256 4.3656t-1.8256 4.445q-1.8256 1.5875-4.2862 1.5875zm17.701 0q-2.4606 0-4.2862-1.5875-1.8256-1.6669-1.8256-4.445t1.8256-4.3656q1.8256-1.6669 4.2862-1.6669t4.2862 1.6669q1.8256 1.5875 1.8256 4.3656t-1.8256 4.445q-1.8256 1.5875-4.2862 1.5875z"/>
  <path id="radio" d="m89.864 19.39c-0.25135 7e-3 -0.53024 0.0645-0.83716 0.17053-0.95955 0.33149-2.0462 0.97466-3.2598 1.9301-1.2136 0.92724-2.4412 2.1978-3.683 3.8122-0.254 0.34175-0.52238 0.70291-0.8046 1.0826-0.28222 0.37973-0.55008 0.74036-0.80408 1.0821-0.254 0.34175-0.46577 0.64053-0.63511 0.89659-0.10298 0.17975-0.16751 0.30739-0.19533 0.38602-7e-3 0.0102-0.01 0.0153-0.0165 0.0258-0.16933 0.22784-0.43719 0.60262-0.80409 1.1245-0.33866 0.48389-0.8183 1.1575-1.4392 2.0211-0.98778 1.3855-1.8207 2.4212-2.498 3.1068-0.67734 0.68555-1.1711 1.0818-1.4816 1.1891-0.47977 0.16575-0.71933 8e-3 -0.71933-0.47129 0-0.31044 0.12686-0.7775 0.38085-1.4015 0.28223-0.66194 0.62085-1.3858 1.016-2.1714 0.42334-0.82358 0.87466-1.6848 1.3544-2.5843 0.508-0.90927 1.0023-1.7857 1.4821-2.6288 0.47978-0.84307 0.9028-1.61 1.2697-2.3012 0.39511-0.70093 0.69128-1.255 0.88884-1.6619l-2.7094 1.1054c-0.6491 1.3531-1.4674 2.8497-2.4551 4.4891-0.95956 1.6297-1.9471 3.1703-2.9631 4.6219s-1.9899 2.705-2.9213 3.7605c-0.90311 1.0458-1.6228 1.6617-2.159 1.8469-0.16934 0.0584-0.33865 0.0601-0.50798 6e-3 -0.14111-0.0641-0.21136-0.22297-0.21136-0.47697 0-0.42334 0.0703-0.84269 0.21136-1.2583 0.16933-0.42539 0.46602-1.0502 0.88935-1.8738 0.45156-0.86156 1.0722-2.0216 1.8624-3.4799 0.81844-1.4963 1.8768-3.5128 3.175-6.0498l-2.3704 0.98857c-0.73377 0.84616-1.3832 1.6345-1.9477 2.3657-0.53622 0.72148-1.0158 1.3814-1.4392 1.9792-0.47978 0.67375-0.87501 1.2194-1.1855 1.6371-0.28222 0.37972-0.494 0.67851-0.6351 0.89659-0.1411 0.21807-0.23964 0.379-0.29611 0.48317-0.0206 0.0483-0.0337 0.0866-0.0393 0.11472-0.1072 0.1715-0.27697 0.43406-0.55346 0.85215-0.45155 0.69221-0.95949 1.4182-1.5239 2.1776-0.53622 0.74968-1.1008 1.4809-1.6934 2.1937-0.59267 0.71274-1.1992 1.3879-1.82 2.0257-0.62089 0.60961-1.2279 1.1437-1.8206 1.6025l-0.0847-0.0553 7.1122-14.225-2.7518 1.1622c-0.28223 0.69017-0.57839 1.3711-0.88884 2.0428-0.31044 0.64347-0.60713 1.2395-0.88935 1.7885l-0.0842-0.0553c0.1129-0.40589 0.16898-0.91907 0.16898-1.54 0-0.73378-0.19761-1.1877-0.59273-1.3617-0.39511-0.17392-0.93135-0.14407-1.6087 0.0899-0.62089 0.2145-1.2981 0.57565-2.0319 1.0831-0.73378 0.50749-1.4676 1.0857-2.2014 1.7343-0.73378 0.64861-1.4393 1.3437-2.1167 2.0857-0.64911 0.70403-1.2131 1.3928-1.6929 2.0665-0.59267 0.85385-0.97375 1.409-1.1431 1.665-0.01498 0.0232-0.02588 0.0417-0.03927 0.063-0.04338 0.0301-0.08684 0.0848-0.13022 0.16485-0.05644 0.0759-0.21161 0.31288-0.46561 0.71107-1.2418 1.8683-2.3987 3.4818-3.4711 4.84-1.0442 1.3203-1.8913 2.0924-2.5404 2.3167-0.47978 0.16574-0.71934 0.0515-0.71934-0.34365 0-0.254 0.1127-0.68854 0.33848-1.3028 0.254-0.62397 0.57847-1.3568 0.97358-2.1988 0.39511-0.84205 0.81865-1.7222 1.2702-2.6402 0.47978-0.92775 0.94526-1.8084 1.3968-2.6417 0.45156-0.86154 0.86094-1.6237 1.2278-2.2867 0.39511-0.70094 0.69128-1.1984 0.88883-1.4924l-2.0319 0.78703c-0.22578 0.078-0.40924 0.19751-0.55036 0.35915-0.11289 0.12366-0.23974 0.32285-0.38086 0.59738-0.14111 0.2463-0.32458 0.60589-0.55035 1.079-0.19756 0.46335-0.48009 1.0546-0.84698 1.774l-0.08423-0.0553c0.08467-0.28324 0.12661-0.679 0.12661-1.187 0-0.56445-0.14101-0.99534-0.42323-1.293-0.28222-0.32583-0.7477-0.37669-1.3968-0.15245-0.73377 0.2535-1.4959 0.644-2.2862 1.171-0.762 0.51725-1.5242 1.1332-2.2862 1.848-0.73378 0.70505-1.453 1.4756-2.1585 2.312-0.70555 0.8364-1.3409 1.705-1.9053 2.6055-0.28222 0.43616-0.46569 0.71136-0.55035 0.82527-0.08467 0.11392-0.12712 0.21299-0.12712 0.29766 0 0.14111 0.05661 0.19248 0.1695 0.15348 0.05645-0.0195 0.0989-0.0484 0.12712-0.0863 0.02822-0.0662 0.07068-0.10921 0.12712-0.12867-0.05644 0.35816-0.11305 0.71618-0.1695 1.0744-0.02822 0.3202-0.04237 0.6499-0.04237 0.98857 0 0.47977 0.0283 0.94945 0.08475 1.4097 0.08467 0.4223 0.22567 0.78295 0.42323 1.0816 0.19755 0.27042 0.46593 0.46018 0.8046 0.56896 0.36689 0.099 0.81822 0.0561 1.3544-0.12919 0.39511-0.1365 0.83229-0.41483 1.3121-0.83458 0.47978-0.44797 0.95993-0.93808 1.4397-1.4707 0.47978-0.56085 0.9311-1.1264 1.3544-1.696 0.45156-0.57933 0.83264-1.0778 1.1431-1.4955 0 0.11288-0.01416 0.24498-0.04238 0.39584v0.38085c0 1.1571 0.16931 1.8747 0.50798 2.1528 0.33867 0.27811 0.79051 0.31954 1.355 0.12454 0.56445-0.19499 1.2417-0.72494 2.0319-1.5906 0.79022-0.89389 1.6792-2.0198 2.667-3.3771 0.254-0.34174 0.50771-0.71129 0.76171-1.1095 0.28222-0.40794 0.53645-0.77801 0.76223-1.11s0.40924-0.60718 0.55035-0.82527c0.11669-0.17646 0.19007-0.29503 0.22634-0.36328 0.05248-0.0536 0.11784-0.0941 0.19689-0.12144 0.11289-0.039 0.1695-0.0165 0.1695 0.0682 0 0.31044-0.05661 0.64067-0.1695 0.99012-0.08467 0.33969-0.12712 0.77739-0.12712 1.3136-3e-6 1.1007 0.18346 1.9263 0.55035 2.4768 0.39511 0.54084 1.0865 0.64045 2.0743 0.29921 0.59266-0.20474 1.1997-0.59734 1.8206-1.1787 0.62089-0.58138 1.2132-1.224 1.7777-1.927 0.59266-0.74097 1.1289-1.4764 1.6087-2.2066 0.47978-0.75842 0.87502-1.4026 1.1855-1.9332l0.0847 0.0553c-0.79022 1.797-1.4109 3.2249-1.8624 4.284-0.42334 1.0494-0.79027 1.9803-1.1007 2.7931-1.778 1.6302-3.3584 3.0937-4.7413 4.3899-1.3829 1.3244-2.5544 2.5473-3.514 3.669-0.95956 1.1217-1.6934 2.1512-2.2014 3.0887s-0.76171 1.8296-0.76171 2.6763c0 0.73378 0.19762 1.2019 0.59273 1.404 0.39511 0.23043 0.90305 0.23827 1.5239 0.0238 0.64911-0.22424 1.3405-0.70281 2.0743-1.4361 0.73378-0.70505 1.4676-1.5511 2.2014-2.5384 0.73378-0.98727 1.4535-2.0545 2.159-3.2014 0.73378-1.1566 1.3969-2.303 1.9895-3.4391 0.62089-1.1176 1.1571-2.1639 1.6087-3.1383 0.47979-0.98419 0.84672-1.7883 1.1007-2.4123 0.87488-0.61269 1.9332-1.585 3.175-2.9171 1.2418-1.3603 2.427-2.8705 3.5558-4.5305 0.6209-0.89182 1.0303-1.4847 1.2278-1.7787 0.16456-0.24491 0.25932-0.42595 0.2868-0.54519 0.0882-0.13621 0.21466-0.32405 0.39016-0.57774 0.64911-0.90157 1.2986-1.8173 1.9477-2.7471 0.67734-0.93955 1.3263-1.7562 1.9472-2.4505l0.0847 0.0553c-0.39511 0.72917-0.84695 1.4918-1.355 2.2882-0.508 0.76817-0.98764 1.555-1.4392 2.3601-0.45156 0.77689-0.83264 1.5857-1.1431 2.4267-0.28222 0.80305-0.42323 1.5998-0.42323 2.39 0 0.6491 0.15517 1.1455 0.46561 1.4898 0.31045 0.31608 0.80423 0.3575 1.4816 0.1235 0.47978-0.16574 0.98824-0.51065 1.5245-1.0346 0.56444-0.53366 1.1143-1.1192 1.6506-1.756 0.53622-0.66502 1.0305-1.315 1.4821-1.9508 0.45156-0.66399 0.83265-1.2191 1.1431-1.665l0.0842 0.0553c-0.19756 0.60447-0.29611 1.1748-0.29611 1.711 0 0.25399 0.0142 0.53129 0.0424 0.83199 0.0564 0.29094 0.14084 0.55827 0.25373 0.8015 0.14111 0.23347 0.32458 0.4096 0.55035 0.52916 0.254 0.0816 0.56484 0.0591 0.93173-0.0677 0.56445-0.195 1.1992-0.66833 1.9048-1.4201 0.73378-0.78972 1.637-1.9198 2.7094-3.391 0.22578-0.33199 0.47948-0.70206 0.7617-1.11 0.31044-0.41769 0.59297-0.81135 0.84697-1.1813s0.46578-0.68291 0.63511-0.93896c0.1648-0.27669 0.24828-0.43148 0.25269-0.46561 0.10612-0.15077 0.21914-0.24782 0.33952-0.28938 0.0847-0.0293 0.12712 0.0405 0.12712 0.2098 0 0.14112-0.0425 0.36757-0.12712 0.67903-0.0565 0.30173-0.0842 0.83377-0.0842 1.5958 0 1.1571 0.2254 1.9963 0.67696 2.5177 0.45156 0.52133 1.101 0.63562 1.9477 0.34313 1.1853-0.40949 2.2154-1.0757 3.0902-1.9988 0.90311-0.9611 1.6789-1.9209 2.328-2.8789 0.0847-1e-3 0.26813-0.0503 0.55035-0.14779 0.81845-0.28275 1.5806-0.70103 2.2862-1.2552 0.73378-0.59216 1.3686-1.2631 1.9048-2.0128 0.47977-0.67375 0.77646-1.101 0.88935-1.2811s0.16898-0.29804 0.16898-0.3545c0-0.14109-0.0702-0.18775-0.21135-0.13901-0.0564 0.0195-0.12721 0.0866-0.21188 0.2005-0.0564 0.10417-0.22576 0.35998-0.50798 0.76791-0.53622 0.80615-1.1427 1.5238-1.82 2.1528-0.67733 0.60088-1.3829 1.0281-2.1167 1.2816-0.19755 0.0683-0.35322 0.0939-0.46612 0.0765 0.31045-0.41769 0.60713-0.88736 0.88935-1.4082 0.31045-0.5588 0.57831-1.1029 0.80409-1.6325 0.254-0.56753 0.45162-1.1153 0.59273-1.6438 0.14111-0.55674 0.21187-1.0469 0.21187-1.4702 0-0.84667-0.22593-1.46-0.67748-1.8402-0.26458-0.26137-0.60633-0.38605-1.0253-0.37362zm-0.1726 0.53175c0.26238 2e-3 0.46402 0.10205 0.60513 0.30024 0.2257 0.28879 0.33841 0.68805 0.33848 1.1958-8e-5 0.95942-0.22548 2.0396-0.67696 3.2396-0.45155 1.2002-1.0303 2.3592-1.7358 3.4778-0.67733 1.0807-1.4536 2.0546-2.3285 2.9213-0.84667 0.85694-1.6932 1.4314-2.5399 1.7239-0.31044 0.10725-0.57831 0.0873-0.80408-0.0605-0.19756-0.15753-0.29662-0.53285-0.29662-1.1255 0-0.87489 0.21177-1.9217 0.6351-3.1404 0.45156-1.2284 1.0161-2.4252 1.6934-3.5905s1.4253-2.2001 2.2438-3.1037c0.81844-0.90363 1.5942-1.4818 2.328-1.7353 0.20108-0.0695 0.38053-0.10401 0.53795-0.10284zm-55.243 0.98082c-0.02117-2e-3 -0.04568 3e-3 -0.0739 0.0124-0.22578 0.078-0.5644 0.36419-1.016 0.85886-0.45156 0.46644-0.97365 0.97122-1.5663 1.5146-0.93133-0.12982-2.0746-0.0879-3.4292 0.12609-1.3547 0.18576-2.7799 0.53694-4.2757 1.0537-0.95956 0.33149-1.9471 0.72934-2.9631 1.1932-0.98778 0.4259-1.8768 0.87407-2.667 1.3446-0.53622-0.26646-1.3262-0.40276-2.3704-0.40876-1.016-0.0159-2.0602 0.16178-3.1326 0.53227-1.4958 0.51674-2.865 1.2154-4.1067 2.096-1.2136 0.8708-2.3002 1.8243-3.2597 2.8613-0.95956 1.0088-1.792 2.0446-2.4975 3.1068-0.67733 1.0524-1.256 2.0426-1.7358 2.9704-0.45156 0.88977-0.79018 1.6698-1.016 2.3404-0.22578 0.64244-0.33848 1.0487-0.33848 1.218 0 0.0282 0.01415 0.0654 0.04237 0.11214 0.02822 0.0467 0.07068 0.0603 0.12712 0.0408 0.08467-0.0292 0.19737-0.23787 0.33848-0.62528 0.14111-0.38742 0.35288-0.89797 0.6351-1.5317 0.28222-0.66194 0.6633-1.4424 1.1431-2.342 0.47978-0.89952 1.1004-1.8619 1.8624-2.8872 1.2136-1.6328 2.5681-3.0318 4.0638-4.1977 1.4958-1.1941 3.0484-2.0694 4.6571-2.6252 0.81844-0.28274 1.6792-0.46724 2.5823-0.55345 0.90311-0.0862 1.6931-6e-3 2.3704 0.23977-0.93133 0.5193-1.9331 1.1897-3.0055 2.0118-1.0724 0.82205-2.1449 1.7572-3.2174 2.805-1.0724 1.0196-2.1025 2.123-3.0903 3.3109-0.95956 1.1782-1.8203 2.3791-2.5823 3.6018-0.73378 1.1848-1.3266 2.3773-1.7782 3.5776-0.45156 1.2002-0.67748 2.3361-0.67748 3.4086 0 0.79022 0.12737 1.4381 0.38137 1.943 0.254 0.4767 0.59262 0.83945 1.016 1.0883 0.42333 0.22053 0.91712 0.33219 1.4816 0.33486 0.56444 3e-3 1.1573-0.10332 1.7782-0.31781 1.5804-0.54599 3.1184-1.4586 4.6142-2.7373 1.4958-1.307 2.822-2.781 3.9791-4.4225 1.1571-1.6697 2.0886-3.3885 2.7941-5.1563 0.70556-1.796 1.0583-3.456 1.0583-4.98 0-0.93134-0.12686-1.7905-0.38086-2.5776-0.22578-0.82512-0.66347-1.4924-1.3126-2.002 0.81844-0.48028 1.6372-0.89017 2.4557-1.2294 0.84667-0.34896 1.7635-0.69436 2.7513-1.0356 1.0724-0.37049 2.2157-0.66611 3.4292-0.8878 1.2418-0.23142 2.4553-0.26967 3.6406-0.11472-1.016 1.0001-2.0319 2.1412-3.0479 3.4236-0.98777 1.2726-1.9334 2.6008-2.8365 3.9853-0.87489 1.3747-1.6931 2.758-2.4551 4.1501s-1.4251 2.7078-1.9895 3.947c-0.508 1.1068-1.0584 2.313-1.6511 3.6184-0.56444 1.2957-1.1856 2.625-1.8629 3.9879-0.67733 1.3346-1.4253 2.6797-2.2438 4.0349-0.79022 1.3172-1.6651 2.5506-2.6246 3.7006-0.93133 1.1402-1.9472 2.1545-3.0479 3.0427-1.0724 0.85027-2.2293 1.4898-3.4711 1.9187-0.98778 0.34124-1.6933 0.42982-2.1167 0.26562-0.39511-0.20217-0.59273-0.52875-0.59273-0.9803 0-0.22578 0.07076-0.44802 0.21187-0.66611 0.14111-0.2463 0.21136-0.56659 0.21136-0.9617 0-0.47977-0.16931-0.80267-0.50798-0.9679-0.33867-0.19348-0.74805-0.20708-1.2278-0.0413-0.508 0.17549-0.90272 0.49525-1.1849 0.95963-0.254 0.42641-0.38137 0.87983-0.38137 1.3596 0 0.62089 0.12737 1.1131 0.38137 1.4769 0.28222 0.32583 0.64915 0.55177 1.1007 0.678 0.47978 0.11646 1.016 0.12906 1.6087 0.0372 0.62089-0.0734 1.2557-0.22223 1.9048-0.44648 1.6369-0.56548 3.2315-1.455 4.7837-2.6686 1.5804-1.2516 3.076-2.6857 4.4871-4.3021 1.4393-1.6544 2.766-3.4392 3.9796-5.3542 1.2418-1.953 2.3284-3.9229 3.2597-5.9097 0.93133-1.9586 1.8062-3.8268 2.6246-5.6053 0.81844-1.8067 1.6084-3.4768 2.3704-5.01 0.762-1.5615 1.5383-2.9726 2.3285-4.2333 0.79022-1.289 1.6368-2.4003 2.5399-3.3331 0.95956 0.23294 1.6651 0.70892 2.1167 1.4278 0.47978 0.70914 0.71985 1.6003 0.71985 2.6727 0 0.93134-0.16932 1.9635-0.50798 3.0964-0.31044 1.1232-0.77644 2.201-1.3973 3.2339-0.59267 1.0232-1.3265 1.9541-2.2014 2.7926-0.84666 0.82871-1.7918 1.4236-2.836 1.7844-0.36689 0.12644-0.70551 0.18671-1.016 0.18138-0.28222-0.0154-0.53645-0.0547-0.76223-0.11782-0.22578-0.0631-0.4234-0.12182-0.59273-0.17622-0.14111-0.0641-0.22551-0.0914-0.25373-0.0816-0.16933 0.0585-0.25425 0.15861-0.25425 0.29973 0 0.0847 0.09907 0.17745 0.29662 0.27853 0.22578 0.0914 0.49364 0.1679 0.80409 0.22996 0.33867 0.0523 0.7056 0.0811 1.1007 0.0858 0.42333-5e-3 0.83272-0.0764 1.2278-0.21291 0.98778-0.34124 1.9895-0.88481 3.0055-1.6309 1.0442-0.75584 1.9757-1.6139 2.7941-2.574 0.84667-0.99805 1.5381-2.0553 2.0743-3.1719 0.53622-1.1166 0.80408-2.2111 0.80408-3.2835 0-1.5522-0.42302-2.7888-1.2697-3.7098-0.81844-0.95904-1.8909-1.576-3.2174-1.8516 0.56445-0.59011 1.0724-1.076 1.5239-1.4578 0.45156-0.40999 0.67748-0.68572 0.67748-0.82682 0-0.10584-0.0321-0.16085-0.0956-0.16537zm-16.161 6.6699c0.45156 0.32378 0.73409 0.80499 0.84698 1.4433 0.11289 0.63833 0.16898 1.3386 0.16898 2.1006 0 1.4676-0.35278 3.1135-1.0583 4.9377-0.70556 1.8242-1.6224 3.5944-2.7513 5.3108-1.1007 1.6785-2.3425 3.1939-3.7254 4.5465-1.3829 1.3244-2.7657 2.2254-4.1486 2.7032-1.1007 0.38024-1.9897 0.33462-2.667-0.13694-0.64911-0.50954-0.9741-1.4274-0.9741-2.7538 0-1.2982 0.42354-2.799 1.2702-4.5026 0.84667-1.7036 1.9475-3.4103 3.3021-5.1201 1.3547-1.7098 2.8785-3.3232 4.5718-4.8395 1.7216-1.5261 3.443-2.7558 5.1645-3.6892zm38.981 3.5264c0.23812-0.0161 0.41041 0.0457 0.51624 0.18552 0.16934 0.22372 0.25374 0.57545 0.25374 1.0552-1e-5 0.39511-0.12686 0.94708-0.38086 1.6557-0.254 0.68042-0.59263 1.4326-1.016 2.2562-0.39511 0.81383-0.86059 1.652-1.3968 2.5146-0.53623 0.86258-1.1008 1.6782-1.6934 2.4474-0.59267 0.74096-1.1997 1.4025-1.8206 1.9839-0.59267 0.54341-1.1431 0.90247-1.6511 1.078-0.36689 0.12676-0.64891 0.0974-0.84646-0.0884-0.16933-0.1955-0.25425-0.47647-0.25425-0.84336 0-0.79022 0.24007-1.8045 0.71985-3.0427 0.508-1.2762 1.1428-2.54 1.9048-3.791s1.5949-2.3712 2.498-3.3605c0.93134-0.99908 1.8204-1.6449 2.667-1.9374 0.1905-0.0658 0.35684-0.1035 0.49972-0.11317zm-17.064 5.9009c0.22269-4e-3 0.39588 0.0693 0.51935 0.22066 0.22578 0.20422 0.33848 0.51821 0.33848 0.94154 0 0.79022-0.29617 1.8239-0.88884 3.1011-0.56444 1.2392-1.2558 2.48-2.0743 3.7223-0.81844 1.2423-1.665 2.353-2.5399 3.3326-0.87489 0.95135-1.6229 1.5342-2.2438 1.7487-0.33867 0.117-0.59289 0.0782-0.76223-0.1173-0.14111-0.20526-0.21136-0.50561-0.21136-0.90072 0-0.762 0.22592-1.7574 0.67748-2.9859 0.45156-1.2284 1.0297-2.4582 1.7353-3.6897 0.70555-1.2315 1.496-2.337 2.3709-3.3166 0.90311-1.0175 1.778-1.6728 2.6246-1.9652 0.16933-0.0585 0.32062-0.089 0.45424-0.0915zm13.05 8.4651c-0.14111 0.47208-0.38067 1.1194-0.71934 1.942-0.31045 0.8128-0.70568 1.6971-1.1855 2.6531-0.45156 0.97444-0.9595 1.9683-1.5239 2.9817-0.53622 1.0319-1.1008 1.9749-1.6934 2.8288-0.59267 0.88208-1.1855 1.6369-1.7782 2.265-0.56445 0.61833-1.1148 1.0204-1.6511 1.2056-0.56444 0.19499-0.91722 0.16144-1.0583-0.10025-0.11289-0.24322-0.16898-0.60491-0.16898-1.0847 0-0.98777 0.38108-2.0786 1.1431-3.2732 0.762-1.1946 1.6647-2.3818 2.7089-3.561s2.1167-2.2831 3.2174-3.3125 2.0038-1.8775 2.7094-2.5446z"/>
</svg>
